<?xml version="1.0" standalone="no"?>
<!DOCTYPE svg PUBLIC "-//W3C//DTD SVG 20010904//EN"
 "http://www.w3.org/TR/2001/REC-SVG-20010904/DTD/svg10.dtd">
<svg version="1.0" xmlns="http://www.w3.org/2000/svg"
 width="186.000000pt" height="186.000000pt" viewBox="0 0 186.000000 186.000000"
 preserveAspectRatio="xMidYMid meet">

<g transform="translate(0.000000,186.000000) scale(0.100000,-0.100000)"
fill="#000000" stroke="none">
<path d="M60 1590 l0 -210 210 0 210 0 0 210 0 210 -210 0 -210 0 0 -210z
m360 0 l0 -150 -150 0 -150 0 0 150 0 150 150 0 150 0 0 -150z"/>
<path d="M180 1590 l0 -90 90 0 90 0 0 90 0 90 -90 0 -90 0 0 -90z"/>
<path d="M600 1770 c0 -27 -3 -30 -30 -30 l-30 0 0 -60 0 -60 60 0 60 0 0 -30
c0 -27 3 -30 30 -30 l30 0 0 -60 0 -60 -30 0 c-27 0 -30 -3 -30 -30 0 -27 3
-30 30 -30 27 0 30 -3 30 -30 l0 -30 60 0 60 0 0 -30 c0 -27 3 -30 30 -30 27
0 30 -3 30 -30 l0 -30 -60 0 -60 0 0 30 c0 27 -3 30 -30 30 -27 0 -30 -3 -30
-30 0 -27 3 -30 30 -30 27 0 30 -3 30 -30 l0 -30 -60 0 -60 0 0 -30 c0 -27 -3
-30 -30 -30 l-30 0 0 -60 0 -60 60 0 60 0 0 -30 c0 -27 -3 -30 -30 -30 -27 0
-30 -3 -30 -30 0 -27 3 -30 30 -30 l30 0 0 -60 0 -60 30 0 30 0 0 -120 0 -120
-30 0 c-27 0 -30 3 -30 30 0 27 -3 30 -30 30 -27 0 -30 3 -30 30 0 27 3 30 30
30 27 0 30 3 30 30 0 27 -3 30 -30 30 l-30 0 0 60 0 60 -30 0 c-27 0 -30 3
-30 30 0 27 -3 30 -30 30 l-30 0 0 -60 0 -60 -60 0 -60 0 0 30 c0 27 3 30 30
30 27 0 30 3 30 30 0 27 -3 30 -30 30 -27 0 -30 3 -30 30 l0 30 60 0 60 0 0
30 0 30 -60 0 -60 0 0 -30 0 -30 -90 0 -90 0 0 30 0 30 60 0 60 0 0 30 c0 27
-3 30 -30 30 -27 0 -30 3 -30 30 0 27 -3 30 -30 30 -27 0 -30 -3 -30 -30 0
-27 -3 -30 -30 -30 -27 0 -30 3 -30 30 0 27 -3 30 -30 30 -27 0 -30 3 -30 30
0 27 3 30 30 30 27 0 30 3 30 30 l0 30 90 0 90 0 0 30 0 30 60 0 60 0 0 30 0
30 -60 0 -60 0 0 -30 c0 -27 -3 -30 -30 -30 -27 0 -30 3 -30 30 l0 30 -90 0
-90 0 0 -30 c0 -27 3 -30 30 -30 27 0 30 -3 30 -30 l0 -30 -60 0 -60 0 0 -180
0 -180 30 0 c27 0 30 -3 30 -30 0 -27 -3 -30 -30 -30 -27 0 -30 -3 -30 -30 0
-27 3 -30 30 -30 27 0 30 -3 30 -30 0 -27 -3 -30 -30 -30 l-30 0 0 -60 0 -60
30 0 c27 0 30 3 30 30 0 27 3 30 30 30 27 0 30 3 30 30 0 27 3 30 30 30 27 0
30 -3 30 -30 0 -27 3 -30 30 -30 27 0 30 -3 30 -30 l0 -30 120 0 120 0 0 -30
c0 -27 3 -30 30 -30 27 0 30 3 30 30 0 27 3 30 30 30 l30 0 0 -90 0 -90 -30 0
c-27 0 -30 3 -30 30 0 27 -3 30 -30 30 -27 0 -30 -3 -30 -30 0 -27 3 -30 30
-30 27 0 30 -3 30 -30 0 -27 -3 -30 -30 -30 l-30 0 0 -90 0 -90 60 0 60 0 0
-30 0 -30 60 0 60 0 0 30 0 30 120 0 120 0 0 30 0 30 -210 0 -210 0 0 30 c0
27 3 30 30 30 l30 0 0 60 0 60 30 0 c27 0 30 3 30 30 0 27 3 30 30 30 27 0 30
3 30 30 0 27 3 30 30 30 27 0 30 -3 30 -30 0 -27 3 -30 30 -30 l30 0 0 -60 0
-60 -30 0 c-27 0 -30 3 -30 30 0 27 -3 30 -30 30 -27 0 -30 -3 -30 -30 0 -27
-3 -30 -30 -30 -27 0 -30 -3 -30 -30 l0 -30 120 0 120 0 0 60 0 60 30 0 c27 0
30 -3 30 -30 0 -27 3 -30 30 -30 l30 0 0 -60 0 -60 30 0 30 0 0 60 0 60 -30 0
c-27 0 -30 3 -30 30 0 27 3 30 30 30 27 0 30 3 30 30 l0 30 60 0 60 0 0 -60 0
-60 -30 0 -30 0 0 -60 0 -60 30 0 30 0 0 -60 0 -60 60 0 60 0 0 60 0 60 -60 0
-60 0 0 60 0 60 30 0 c27 0 30 -3 30 -30 0 -27 3 -30 30 -30 27 0 30 3 30 30
l0 30 60 0 60 0 0 -30 0 -30 60 0 60 0 0 30 c0 27 3 30 30 30 27 0 30 -3 30
-30 0 -27 3 -30 30 -30 27 0 30 -3 30 -30 0 -27 -3 -30 -30 -30 l-30 0 0 -60
0 -60 30 0 30 0 0 60 0 60 30 0 c27 0 30 3 30 30 0 27 -3 30 -30 30 -27 0 -30
3 -30 30 0 27 -3 30 -30 30 -27 0 -30 3 -30 30 0 27 3 30 30 30 l30 0 0 60 0
60 30 0 c27 0 30 3 30 30 0 27 -3 30 -30 30 l-30 0 0 60 0 60 -60 0 -60 0 0
30 c0 27 3 30 30 30 27 0 30 3 30 30 0 27 -3 30 -30 30 l-30 0 0 90 0 90 30 0
c27 0 30 -3 30 -30 l0 -30 60 0 60 0 0 120 0 120 -30 0 c-27 0 -30 3 -30 30 0
27 3 30 30 30 27 0 30 3 30 30 0 27 -3 30 -30 30 -27 0 -30 3 -30 30 l0 30
-60 0 -60 0 0 -60 0 -60 -30 0 c-27 0 -30 3 -30 30 l0 30 -120 0 -120 0 0 30
c0 27 -3 30 -30 30 -27 0 -30 -3 -30 -30 l0 -30 -60 0 -60 0 0 30 c0 27 3 30
30 30 l30 0 0 60 0 60 30 0 c27 0 30 -3 30 -30 0 -27 3 -30 30 -30 l30 0 0 60
0 60 -30 0 c-27 0 -30 3 -30 30 0 27 -3 30 -30 30 -27 0 -30 -3 -30 -30 0 -27
-3 -30 -30 -30 l-30 0 0 60 0 60 30 0 30 0 0 60 0 60 30 0 c27 0 30 -3 30 -30
0 -27 3 -30 30 -30 l30 0 0 60 0 60 -120 0 -120 0 0 -30 c0 -27 -3 -30 -30
-30 -27 0 -30 3 -30 30 l0 30 -60 0 -60 0 0 -30 0 -30 -60 0 -60 0 0 -30 0
-30 -60 0 -60 0 0 30 c0 27 3 30 30 30 27 0 30 3 30 30 l0 30 -60 0 -60 0 0
-30z m240 -120 c0 -27 3 -30 30 -30 l30 0 0 -60 0 -60 30 0 30 0 0 90 0 90 90
0 90 0 0 -30 c0 -27 -3 -30 -30 -30 l-30 0 0 -60 0 -60 -60 0 -60 0 0 -30 c0
-27 3 -30 30 -30 27 0 30 -3 30 -30 0 -27 3 -30 30 -30 27 0 30 3 30 30 0 27
3 30 30 30 27 0 30 -3 30 -30 0 -27 -3 -30 -30 -30 -27 0 -30 -3 -30 -30 l0
-30 -60 0 -60 0 0 -30 c0 -27 -3 -30 -30 -30 l-30 0 0 60 0 60 -30 0 c-27 0
-30 3 -30 30 0 27 3 30 30 30 27 0 30 3 30 30 0 27 -3 30 -30 30 l-30 0 0 60
0 60 -30 0 c-27 0 -30 -3 -30 -30 0 -27 -3 -30 -30 -30 -27 0 -30 3 -30 30 0
27 3 30 30 30 27 0 30 3 30 30 0 27 3 30 30 30 27 0 30 -3 30 -30z m-60 -240
c0 -27 -3 -30 -30 -30 -27 0 -30 3 -30 30 0 27 3 30 30 30 27 0 30 -3 30 -30z
m300 -180 c0 -27 3 -30 30 -30 l30 0 0 -60 0 -60 30 0 30 0 0 60 0 60 60 0 60
0 0 -30 c0 -27 -3 -30 -30 -30 -27 0 -30 -3 -30 -30 0 -27 3 -30 30 -30 27 0
30 -3 30 -30 0 -27 3 -30 30 -30 l30 0 0 60 0 60 30 0 c27 0 30 -3 30 -30 0
-27 3 -30 30 -30 l30 0 0 60 0 60 30 0 c27 0 30 -3 30 -30 0 -27 3 -30 30 -30
27 0 30 3 30 30 0 27 3 30 30 30 27 0 30 3 30 30 0 27 3 30 30 30 27 0 30 -3
30 -30 0 -27 -3 -30 -30 -30 -27 0 -30 -3 -30 -30 0 -27 3 -30 30 -30 27 0 30
-3 30 -30 l0 -30 -60 0 -60 0 0 -30 c0 -27 -3 -30 -30 -30 -27 0 -30 -3 -30
-30 0 -27 -3 -30 -30 -30 -27 0 -30 -3 -30 -30 0 -27 3 -30 30 -30 27 0 30 -3
30 -30 l0 -30 -60 0 -60 0 0 -60 0 -60 -30 0 c-27 0 -30 -3 -30 -30 0 -27 -3
-30 -30 -30 -27 0 -30 -3 -30 -30 0 -27 -3 -30 -30 -30 l-30 0 0 -60 0 -60
-60 0 -60 0 0 -30 c0 -27 -3 -30 -30 -30 -27 0 -30 -3 -30 -30 0 -27 -3 -30
-30 -30 -27 0 -30 3 -30 30 0 27 -3 30 -30 30 -27 0 -30 3 -30 30 0 27 -3 30
-30 30 -27 0 -30 3 -30 30 l0 30 60 0 60 0 0 30 c0 27 3 30 30 30 27 0 30 -3
30 -30 0 -27 -3 -30 -30 -30 -27 0 -30 -3 -30 -30 l0 -30 60 0 60 0 0 30 c0
27 3 30 30 30 27 0 30 3 30 30 0 27 -3 30 -30 30 l-30 0 0 120 0 120 -30 0
-30 0 0 -90 0 -90 -60 0 -60 0 0 -30 c0 -27 -3 -30 -30 -30 -27 0 -30 3 -30
30 0 27 3 30 30 30 27 0 30 3 30 30 0 27 -3 30 -30 30 -27 0 -30 3 -30 30 l0
30 -60 0 -60 0 0 30 c0 27 -3 30 -30 30 -27 0 -30 3 -30 30 0 27 3 30 30 30
27 0 30 3 30 30 0 27 -3 30 -30 30 l-30 0 0 60 0 60 90 0 90 0 0 30 c0 27 3
30 30 30 27 0 30 -3 30 -30 0 -27 3 -30 30 -30 27 0 30 -3 30 -30 0 -27 -3
-30 -30 -30 -27 0 -30 3 -30 30 0 27 -3 30 -30 30 -27 0 -30 -3 -30 -30 0 -27
-3 -30 -30 -30 -27 0 -30 -3 -30 -30 l0 -30 90 0 90 0 0 -30 0 -30 90 0 90 0
0 -60 0 -60 30 0 c27 0 30 -3 30 -30 0 -27 3 -30 30 -30 27 0 30 3 30 30 0 27
3 30 30 30 27 0 30 3 30 30 0 27 -3 30 -30 30 l-30 0 0 60 0 60 -30 0 -30 0 0
60 0 60 -30 0 -30 0 0 -60 0 -60 -60 0 -60 0 0 30 c0 27 3 30 30 30 27 0 30 3
30 30 0 27 -3 30 -30 30 l-30 0 0 60 0 60 -30 0 c-27 0 -30 3 -30 30 0 27 3
30 30 30 27 0 30 -3 30 -30z m-900 -240 c0 -27 -3 -30 -30 -30 -27 0 -30 3
-30 30 0 27 3 30 30 30 27 0 30 -3 30 -30z m1560 0 c0 -27 -3 -30 -30 -30 -27
0 -30 3 -30 30 0 27 3 30 30 30 27 0 30 -3 30 -30z m-1500 -120 c0 -27 3 -30
30 -30 27 0 30 -3 30 -30 0 -27 3 -30 30 -30 27 0 30 3 30 30 0 27 3 30 30 30
27 0 30 -3 30 -30 0 -27 -3 -30 -30 -30 -27 0 -30 -3 -30 -30 l0 -30 -60 0
-60 0 0 30 c0 27 -3 30 -30 30 -27 0 -30 -3 -30 -30 0 -27 -3 -30 -30 -30 -27
0 -30 3 -30 30 0 27 3 30 30 30 27 0 30 3 30 30 0 27 -3 30 -30 30 -27 0 -30
3 -30 30 l0 30 60 0 60 0 0 -30z m1320 -120 c0 -27 -3 -30 -30 -30 -27 0 -30
3 -30 30 0 27 3 30 30 30 27 0 30 -3 30 -30z m-960 -60 c0 -27 3 -30 30 -30
27 0 30 -3 30 -30 l0 -30 -120 0 -120 0 0 30 0 30 60 0 60 0 0 30 c0 27 3 30
30 30 27 0 30 -3 30 -30z m960 -60 l0 -30 -60 0 -60 0 0 30 0 30 60 0 60 0 0
-30z m-60 -180 l0 -90 -90 0 -90 0 0 90 0 90 90 0 90 0 0 -90z m180 60 c0 -27
-3 -30 -30 -30 -27 0 -30 -3 -30 -30 0 -27 3 -30 30 -30 27 0 30 -3 30 -30 l0
-30 -60 0 -60 0 0 60 0 60 30 0 c27 0 30 3 30 30 0 27 3 30 30 30 27 0 30 -3
30 -30z"/>
<path d="M900 1410 c0 -27 3 -30 30 -30 27 0 30 3 30 30 0 27 -3 30 -30 30
-27 0 -30 -3 -30 -30z"/>
<path d="M1380 990 l0 -30 60 0 60 0 0 30 0 30 -60 0 -60 0 0 -30z"/>
<path d="M780 870 l0 -30 60 0 60 0 0 30 0 30 -60 0 -60 0 0 -30z"/>
<path d="M960 840 l0 -60 30 0 30 0 0 60 0 60 -30 0 -30 0 0 -60z"/>
<path d="M1200 630 c0 -27 3 -30 30 -30 27 0 30 3 30 30 0 27 -3 30 -30 30
-27 0 -30 -3 -30 -30z"/>
<path d="M1380 450 c0 -27 3 -30 30 -30 27 0 30 3 30 30 0 27 -3 30 -30 30
-27 0 -30 -3 -30 -30z"/>
<path d="M1380 1590 l0 -210 210 0 210 0 0 210 0 210 -210 0 -210 0 0 -210z
m360 0 l0 -150 -150 0 -150 0 0 150 0 150 150 0 150 0 0 -150z"/>
<path d="M1500 1590 l0 -90 90 0 90 0 0 90 0 90 -90 0 -90 0 0 -90z"/>
<path d="M540 1410 c0 -27 3 -30 30 -30 27 0 30 3 30 30 0 27 -3 30 -30 30
-27 0 -30 -3 -30 -30z"/>
<path d="M600 1290 c0 -27 -3 -30 -30 -30 l-30 0 0 -60 0 -60 30 0 c27 0 30 3
30 30 0 27 3 30 30 30 l30 0 0 60 0 60 -30 0 c-27 0 -30 -3 -30 -30z"/>
<path d="M420 1170 c0 -27 3 -30 30 -30 27 0 30 3 30 30 0 27 -3 30 -30 30
-27 0 -30 -3 -30 -30z"/>
<path d="M420 1050 c0 -27 3 -30 30 -30 27 0 30 3 30 30 0 27 -3 30 -30 30
-27 0 -30 -3 -30 -30z"/>
<path d="M1740 810 c0 -27 3 -30 30 -30 27 0 30 3 30 30 0 27 -3 30 -30 30
-27 0 -30 -3 -30 -30z"/>
<path d="M60 270 l0 -210 210 0 210 0 0 210 0 210 -210 0 -210 0 0 -210z m360
0 l0 -150 -150 0 -150 0 0 150 0 150 150 0 150 0 0 -150z"/>
<path d="M180 270 l0 -90 90 0 90 0 0 90 0 90 -90 0 -90 0 0 -90z"/>
<path d="M1500 150 c0 -27 -3 -30 -30 -30 -27 0 -30 -3 -30 -30 0 -27 3 -30
30 -30 27 0 30 3 30 30 l0 30 60 0 60 0 0 30 0 30 -60 0 -60 0 0 -30z"/>
</g>
</svg>
